<?xml version="1.0" standalone="no"?><!DOCTYPE svg PUBLIC "-//W3C//DTD SVG 1.1//EN" "http://www.w3.org/Graphics/SVG/1.1/DTD/svg11.dtd"><svg class="icon" width="128px" height="127.88px" viewBox="0 0 1025 1024" version="1.1" xmlns="http://www.w3.org/2000/svg"><path d="M925.376 920.64c0-229.632 0-459.328 0-688.96-50.688 0-101.376 0-152.128 0-11.456 0-22.848 0-34.24 0-6.656 0-13.76 0.512-19.392-0.768-7.04-1.6-13.056-4.096-18.304-7.616-19.328-12.8-30.336-44.992-14.848-70.848 6.656-11.136 17.216-19.328 30.976-22.976 5.824-1.536 13.44-1.152 20.672-1.152 10.944 0 21.952 0 32.96 0 52.672 0 105.344 0 157.952 0 36.096 0 66.112-4.288 82.624 17.28 4.992 6.592 9.024 13.696 11.264 23.168C1024.256 174.656 1024 182.08 1024 189.312c0 10.304 0 20.672 0 30.976 0 44.864 0 89.792 0 134.656 0 145.344 0 290.752 0 436.096 0 43.84 0 87.744 0 131.648 0 12.032 0 24.192 0 36.288 0 10.112 0.256 20.352-1.984 28.032-5.504 18.368-18.368 30.912-36.8 35.712-6.464 1.728-14.784 1.152-22.656 1.152-12.864 0-25.728 0-38.592 0-43.904 0-87.744 0-131.584 0-16.64 0-33.216 0-49.792 0-11.264 0-22.592 0.512-30.656-2.816-15.04-6.144-25.984-17.344-30.976-33.984-7.232-24.32 5.12-46.976 18.304-56.832 5.504-4.032 12.032-7.104 19.776-8.896 5.44-1.28 12.544-0.768 19.072-0.768 11.136 0 22.336 0 33.472 0C822.848 920.64 874.112 920.64 925.376 920.64zM121.536 302.336c94.4 0 188.8 0 283.136 0 0 65.152 0 130.304 0 195.456C398.144 497.728 391.552 497.664 385.024 497.6c0-58.176 0-116.352 0-174.592-81.28 0-162.624 0-243.904 0 0 14.528 0 28.992 0 43.52 67.456 0 134.912 0 202.368 0 0 43.776 0 87.488 0 131.264-6.528 0-13.056 0-19.584 0C323.904 460.864 323.84 424 323.776 387.072 242.368 387.136 160.96 387.2 79.552 387.264 79.616 401.728 79.68 416.256 79.744 430.72c67.968 0 135.872 0 203.84 0 0 22.4 0 44.736 0 67.072C276.16 497.856 269.952 499.648 264 500.8c0-16.96 0-33.92 0-50.88-81.408 0-162.816 0-244.224 0 0 120.96 0 241.984 0 362.944 81.344 0 162.816 0 244.224 0 0-53.12 0-106.24 0-159.36 5.632 1.984 12.288 3.008 19.584 3.072 0 31.04 0 62.208 0 93.312 13.44-0.128 26.944-0.128 40.384-0.256 0-30.976 0-62.016 0-93.056 6.528 0 13.056 0 19.584 0 0 9.792 0 19.648 0 29.44 13.824 0 27.648 0 41.472 0 0-9.792 0.064-19.648 0.128-29.44 6.528 0 13.056 0 19.584 0 0 16.704 0 33.344 0 49.92-20.416 0-40.832 0-61.248 0 0 20.864 0 41.664 0 62.528-20.032 0.128-40 0.128-59.968 0.256 0 21.376 0 42.88 0 64.384-94.528 0-189.056 0-283.52 0 0-134.336 0-268.608 0-402.88 19.968 0 40 0 59.968 0 0-21.376 0-42.752 0-64.192 20.544-0.064 41.088-0.128 61.568-0.192C121.536 345.024 121.536 323.648 121.536 302.336zM545.472 370.56c21.568-0.448 29.632 9.472 41.152 19.2 7.872 7.424 15.744 14.784 23.552 22.208 43.072 40.512 86.144 81.024 129.216 121.536 14.144 11.904 28.8 35.264 18.624 62.144-5.12 13.632-15.104 22.656-25.152 31.104-9.728 9.152-19.392 18.24-28.992 27.392-41.792 39.488-83.648 78.976-125.376 118.528-15.488 12.416-39.232 15.168-57.472 3.264-18.24-12.032-30.976-43.2-16.256-69.376 5.248-9.28 13.376-16.512 21.184-23.104 19.072-18.112 38.208-36.224 57.28-54.4L583.232 628.864c-86.592 0-173.248 0-259.84 0-9.92 0-19.904 0-29.888 0-6.912 0-14.016 0.32-19.584-1.216-14.976-3.968-24.96-12.672-31.936-25.088C238.784 596.864 233.92 584.896 235.52 574.528 239.424 549.76 249.856 534.336 270.656 527.616c8.128-2.624 19.456-2.112 30.08-2.112 16.576 0 33.216 0 49.792 0 77.568 0 155.2 0 232.832 0C583.168 525.248 582.976 524.992 582.784 524.736 573.12 515.648 563.52 506.56 553.856 497.408c-7.232-6.848-14.528-13.696-21.76-20.544C515.264 462.656 489.216 440.512 500.928 405.44 502.72 400.128 505.28 395.2 508.16 391.04c5.568-7.936 13.952-14.336 23.552-17.856 3.136-0.768 6.272-1.536 9.344-2.304C542.656 370.752 544.064 370.688 545.472 370.56zM60.288 493.76c54.144 0 108.224 0 162.368 0 0 7.104 0 14.208 0 21.312-54.08 0-108.224 0-162.368 0C60.288 507.968 60.288 500.864 60.288 493.76zM59.968 558.4c50.432 0 100.864 0 151.296 0 0 0.064 0 0.128 0 0.192C209.536 564.032 209.088 570.624 209.088 577.536c-49.664 0-99.392 0-149.12 0C59.968 571.136 59.968 564.736 59.968 558.4zM59.968 622.208c54.08 0 108.224 0 162.304 0 0 6.784 0 13.696 0 20.544-54.08 0-108.224 0-162.304 0C59.968 635.904 59.968 628.992 59.968 622.208zM59.968 685.248c54.08 0 108.224 0 162.304 0 0 6.848 0 13.824 0 20.736-54.08 0-108.224 0-162.304 0C59.968 699.072 59.968 692.096 59.968 685.248zM59.968 749.44c54.08 0 108.224 0 162.304 0 0 6.912 0 13.824 0 20.672-54.08 0-108.224 0-162.304 0C59.968 763.264 59.968 756.352 59.968 749.44z" /></svg>