<?xml version="1.0" standalone="no"?><!DOCTYPE svg PUBLIC "-//W3C//DTD SVG 1.1//EN" "http://www.w3.org/Graphics/SVG/1.1/DTD/svg11.dtd"><svg class="icon" width="128px" height="128.00px" viewBox="0 0 1024 1024" version="1.1" xmlns="http://www.w3.org/2000/svg"><path d="M603.022222 779.377778h142.222222v96.711111l250.311112-147.911111-250.311112-147.911111v96.711111h-142.222222v102.4z m-358.4-682.666667c0-5.688889 5.688889-11.377778 11.377778-11.377778h420.977778v216.177778h216.177778V608.711111l56.888888 34.133333V341.333333c0-39.822222-22.755556-113.777778-45.511111-136.533333l-119.466666-119.466667c-28.444444-28.444444-79.644444-45.511111-113.777778-45.511111H256c-39.822222 0-68.266667 28.444444-68.266667 68.266667v136.533333h56.888889V96.711111z m489.244445 11.377778l11.377777 11.377778 119.466667 119.466666s5.688889 5.688889 5.688889 11.377778h-142.222222c5.688889 0 5.688889-142.222222 5.688889-142.222222z"  /><path d="M603.022222 375.466667h221.866667v62.577777h-221.866667V375.466667z m295.822222 546.133333c0 5.688889-5.688889 11.377778-11.377777 11.377778h-625.777778c-5.688889 0-11.377778-5.688889-11.377778-11.377778v-45.511111h-56.888889v45.511111c0 39.822222 28.444444 68.266667 68.266667 68.266667h625.777778c39.822222 0 68.266667-28.444444 68.266666-68.266667v-113.777778l-56.888889 34.133334v79.644444zM540.444444 301.511111h-512v512h512v-512z m-187.733333 403.911111L284.444444 597.333333l-28.444444 45.511111H284.444444v56.888889H125.155556l113.777777-164.977777-96.711111-147.911112H227.555556l56.888888 85.333334 62.577778-85.333334h85.333334L329.955556 534.755556l113.777777 164.977777-91.022222 5.688889z m250.311111-204.8h221.866667v62.577778h-221.866667V500.622222z"  /></svg>