<?xml version="1.0" standalone="no"?><!DOCTYPE svg PUBLIC "-//W3C//DTD SVG 1.1//EN" "http://www.w3.org/Graphics/SVG/1.1/DTD/svg11.dtd"><svg class="icon" width="128px" height="121.36px" viewBox="0 0 1080 1024" version="1.1" xmlns="http://www.w3.org/2000/svg"><path d="M853.333333 887.466667v-62.577778l-125.155555 102.4L853.333333 1024v-62.577778h227.555556v-73.955555zM967.111111 716.8V73.955556H551.822222V0L0 73.955556v711.111111l551.822222 73.955555v-73.955555H967.111111v-68.266667zM375.466667 585.955556H307.2l-51.2-119.466667-51.2 119.466667H136.533333l85.333334-159.288889-68.266667-159.288889h68.266667l45.511111 102.4 39.822222-102.4h73.955556L295.822222 420.977778l79.644445 164.977778z m318.577777 130.844444H551.822222v-142.222222h136.533334v142.222222z m0-216.177778H551.822222V358.4h136.533334v142.222222z m0-216.177778H551.822222V142.222222h136.533334V284.444444z m204.8 432.355556h-136.533333v-142.222222h136.533333v142.222222z m0-216.177778h-136.533333V358.4h136.533333v142.222222z m0-216.177778h-136.533333V142.222222h136.533333V284.444444z" /></svg>