<?xml version="1.0" standalone="no"?><!DOCTYPE svg PUBLIC "-//W3C//DTD SVG 1.1//EN" "http://www.w3.org/Graphics/SVG/1.1/DTD/svg11.dtd"><svg class="icon" width="200px" height="200.00px" viewBox="0 0 1024 1024" version="1.1" xmlns="http://www.w3.org/2000/svg"><path d="M511.458125 519.47788m-386.465533 0a386.465533 386.465533 0 1 0 772.931066 0 386.465533 386.465533 0 1 0-772.931066 0Z" fill="#e9eaeb" /><path d="M787.959077 456.403584H653.429479V424.830311h117.839836l64.447047-94.647569h70.082551v31.573273h-53.392789l-64.447047 94.647569zM653.429479 503.727369h252.369434v31.573273H653.429479z" fill="#bcc0c4" /><path d="M953.122698 409.0798a63.074296 63.074296 0 1 1 63.074296-63.074297 63.146546 63.146546 0 0 1-63.074296 63.074297z m0-94.64757a31.573273 31.573273 0 1 0 31.573273 31.573273 31.573273 31.573273 0 0 0-31.573273-31.573273zM905.798913 708.773019h-70.227051L773.075566 614.12545H653.429479v-31.573273h136.62485l62.496295 94.647569h53.248289v31.573273z" fill="#bcc0c4" /><path d="M953.122698 756.024554a63.074296 63.074296 0 1 1 63.074296-63.074296 63.146546 63.146546 0 0 1-63.074296 63.074296z m0-94.64757a31.573273 31.573273 0 1 0 31.573273 31.573274 31.573273 31.573273 0 0 0-31.573273-31.501024zM953.122698 582.552177a63.074296 63.074296 0 1 1 63.074296-63.074297 63.146546 63.146546 0 0 1-63.074296 63.074297z m0-94.64757a31.573273 31.573273 0 1 0 31.573273 31.573273 31.573273 31.573273 0 0 0-31.573273-31.573273zM495.707613 598.302688h31.573273v252.369435h-31.573273zM637.678967 598.302688h31.573273v252.369435h-31.573273zM353.736259 598.302688h31.573273v252.369435h-31.573273zM495.707613 156.710365h31.573273v220.796161h-31.573273z" fill="#bcc0c4" /><path d="M511.458125 188.211388a63.074296 63.074296 0 1 1 63.074296-63.074296 63.146546 63.146546 0 0 1-63.074296 63.074296z m0-94.647569a31.573273 31.573273 0 1 0 31.573273 31.573273A31.573273 31.573273 0 0 0 511.458125 93.925069zM637.678967 156.710365h31.573273v220.796161h-31.573273z" fill="#bcc0c4" /><path d="M653.429479 188.211388a63.074296 63.074296 0 1 1 63.074296-63.074296 63.146546 63.146546 0 0 1-63.074296 63.074296z m0-94.647569a31.573273 31.573273 0 1 0 31.573273 31.573273A31.573273 31.573273 0 0 0 653.429479 93.925069zM353.736259 156.710365h31.573273v220.796161h-31.573273z" fill="#bcc0c4" /><path d="M369.559021 188.211388a63.074296 63.074296 0 1 1 63.074296-63.074296 63.146546 63.146546 0 0 1-63.074296 63.074296z m0-94.647569a31.573273 31.573273 0 1 0 31.573273 31.573273A31.573273 31.573273 0 0 0 369.559021 93.925069zM369.559021 456.403584H234.957172l-64.374797-94.647569h-53.392789V330.182742h70.082551l64.447047 94.647569h117.839837v31.573273zM117.189586 503.727369h252.369435v31.573273H117.189586z" fill="#bcc0c4" /><path d="M69.865801 409.0798a63.074296 63.074296 0 1 1 63.074296-63.074297 63.146546 63.146546 0 0 1-63.074296 63.074297z m0-94.64757A31.573273 31.573273 0 1 0 101.150074 346.005503a31.573273 31.573273 0 0 0-31.284273-31.573273zM187.416637 708.773019h-70.227051v-31.573273h53.248289l62.424046-94.647569h136.6971V614.12545H249.840683l-62.424046 94.647569z" fill="#bcc0c4" /><path d="M69.865801 756.024554a63.074296 63.074296 0 1 1 63.074296-63.074296 63.146546 63.146546 0 0 1-63.074296 63.074296z m0-94.64757A31.573273 31.573273 0 1 0 101.150074 692.950258a31.573273 31.573273 0 0 0-31.284273-31.501024zM69.865801 582.552177a63.074296 63.074296 0 1 1 63.074296-63.074297 63.146546 63.146546 0 0 1-63.074296 63.074297z m0-94.64757A31.573273 31.573273 0 1 0 101.150074 519.47788a31.573273 31.573273 0 0 0-31.284273-31.573273z" fill="#bcc0c4" /><path d="M306.412474 330.182742m47.323785 0l315.443731 0q47.323785 0 47.323785 47.323784l0 283.870458q0 47.323785-47.323785 47.323785l-315.443731 0q-47.323785 0-47.323785-47.323785l0-283.870458q0-47.323785 47.323785-47.323784Z" fill="#a3d4ff" /><path d="M669.17999 724.523531H354.025259a63.146546 63.146546 0 0 1-63.074296-63.074297v-283.942708A63.146546 63.146546 0 0 1 354.025259 314.43223h315.154731a63.146546 63.146546 0 0 1 63.074296 63.074296v283.942708a63.146546 63.146546 0 0 1-63.074296 63.074297zM354.025259 345.933253a31.573273 31.573273 0 0 0-31.573273 31.573273v283.942708A31.573273 31.573273 0 0 0 354.025259 692.950258h315.154731A31.573273 31.573273 0 0 0 700.825513 661.449234v-283.942708a31.573273 31.573273 0 0 0-31.573273-31.573273z" fill="#2a5082" /><path d="M432.633317 440.580823h157.721865v157.721865H432.633317z" fill="#ffffff" /><path d="M606.105694 614.12545H416.882805V424.830311h189.295139z m-157.721866-31.573273h126.220843V456.403584H448.383828zM353.736259 440.580823h31.573273v31.573273h-31.573273zM353.736259 503.727369h31.573273v31.573273h-31.573273zM353.736259 566.801665h31.573273v31.573273h-31.573273zM637.678967 440.580823h31.573273v31.573273h-31.573273zM637.678967 503.727369h31.573273v31.573273h-31.573273zM637.678967 566.801665h31.573273v31.573273h-31.573273z" fill="#2a5082" /><path d="M511.458125 960.925704a63.074296 63.074296 0 1 1 63.074296-63.074296 63.146546 63.146546 0 0 1-63.074296 63.074296z m0-94.64757a31.573273 31.573273 0 1 0 31.573273 31.573274 31.573273 31.573273 0 0 0-31.573273-31.356523zM653.429479 960.925704a63.074296 63.074296 0 1 1 63.074296-63.074296 63.146546 63.146546 0 0 1-63.074296 63.074296z m0-94.64757a31.573273 31.573273 0 1 0 31.573273 31.573274 31.573273 31.573273 0 0 0-31.573273-31.356523zM369.559021 960.925704a63.074296 63.074296 0 1 1 63.074296-63.074296 63.146546 63.146546 0 0 1-63.074296 63.074296z m0-94.64757a31.573273 31.573273 0 1 0 31.573273 31.573274 31.573273 31.573273 0 0 0-31.573273-31.356523z" fill="#bcc0c4" /></svg>