<?xml version="1.0" standalone="no"?><!DOCTYPE svg PUBLIC "-//W3C//DTD SVG 1.1//EN" "http://www.w3.org/Graphics/SVG/1.1/DTD/svg11.dtd"><svg class="icon" width="128px" height="128.00px" viewBox="0 0 1024 1024" version="1.1" xmlns="http://www.w3.org/2000/svg"><path d="M920.557532 235.640158l-313.560608 316.632223-155.223167-156.780305 313.987222-317.080166a108.359721 108.359721 0 0 1 77.387611-32.422594c29.116342 0 56.675547 11.689198 77.387612 32.6359 43.002598 43.237235 43.002598 113.585731 0.02133 157.014942zM273.833444 799.025382l9.492141 9.705448-15.208756 28.007148-225.8063 140.441024L21.363827 956.018993l140.675661-229.987107 26.023397-13.672949 9.257504 9.47081c4.202139 4.180808 9.705447 6.399196 15.6567 6.399196 5.951252 0 11.475892-2.197057 15.6567-6.399196l129.861019-131.631464 45.412962 45.860905-130.308963 131.866101a22.18388 22.18388 0 0 0 0.234637 31.100093z" fill="#02c9ed" /><path d="M619.560679 595.765584a21.330654 21.330654 0 0 0 30.310858 0.02133l329.281301-332.395576c59.576516-60.195105 59.555185-158.038813-0.021331-218.148595A151.532964 151.532964 0 0 0 870.835779 0.000427h-0.042662a151.255665 151.255665 0 0 0-108.210406 45.263647L433.344072 377.68098a21.330654 21.330654 0 0 0 0 30.01223l186.216607 188.072374zM948.820649 233.379108L634.726773 550.459275l-64.354582-64.994502L963.005533 92.831431c28.305777 43.343888 23.591703 102.387138-14.184884 140.547677z m-155.905748-158.102805A108.807664 108.807664 0 0 1 870.793117 42.661734h0.042662c22.610493 0 44.111792 6.953793 62.3495 19.666863L540.359961 455.153915l-61.858895-62.477485 314.413835-317.400127zM401.476075 541.031126a21.266662 21.266662 0 0 0-30.332189 0.021331l-130.458278 132.100738-5.588631-5.652623a21.373315 21.373315 0 0 0-25.10618-3.882179L164.257876 687.700701a21.181339 21.181339 0 0 0-8.254963 7.743027L3.168779 945.396328a21.330654 21.330654 0 0 0 3.028953 26.130051l45.498285 46.01022a21.415976 21.415976 0 0 0 26.45001 3.114275l245.451832-152.898125c3.114275-1.941089 5.673954-4.650083 7.444398-7.871012l25.980736-47.567357a21.330654 21.330654 0 0 0-3.58355-25.255494l-6.292542-6.356535 130.714245-132.48469a21.330654 21.330654 0 0 0-0.02133-29.969568l-76.363741-77.216967z m-99.507499 224.718437a21.330654 21.330654 0 0 0 0.042661 29.990899l9.961416 10.046738-15.678031 28.711059-226.232913 140.931629-21.778597-22.013234 141.059613-230.648358 26.556663-13.971579 9.662787 9.748109a21.266662 21.266662 0 0 0 30.332189-0.021331l130.458278-132.100738 46.372841 46.863446-130.756907 132.46336zM209.777491 423.02995c115.612143 0 209.680326-94.900078 209.680325-211.536092 0-116.614684-94.068183-211.493431-209.680325-211.493431-17.107184 0-34.619651 2.303711-52.089456 6.825809a21.330654 21.330654 0 0 0-8.78823 36.603401c1.023871 0.938549 2.133065 1.791775 3.58355 2.836977l67.938132 68.578052a68.770027 68.770027 0 0 1 0 96.542538c-25.383478 25.618115-69.644584 25.596784-95.028062 0L57.497954 142.894476a71.116399 71.116399 0 0 1-7.167099-8.937544 21.245331 21.245331 0 0 0-20.285452-8.766899 21.287992 21.287992 0 0 0-17.171176 13.886256A213.605166 213.605166 0 0 0 0.033173 211.536519c0 116.614684 94.089513 211.493431 209.744318 211.493431zM44.102304 189.992559l50.980262 51.449537c20.776057 20.946702 48.420584 32.486586 77.814225 32.486585s57.038168-11.539884 77.814224-32.486585c42.789291-43.173243 42.789291-113.436416 0-156.60966L208.945595 42.661734h0.831896c92.084432 0 167.019018 75.723821 167.019018 168.832124s-74.913256 168.874785-167.019018 168.874785C117.650398 380.368643 42.694481 304.623492 42.694481 211.536519c0-7.18843 0.469274-14.376861 1.407823-21.54396zM789.160706 591.73409a21.351984 21.351984 0 0 0-30.289528 0l-163.926074 165.355227a21.309323 21.309323 0 0 0 0 30.033561l194.770199 196.178021A135.790941 135.790941 0 0 0 886.769777 1023.871803c36.688724 0 71.159061-14.419522 97.075805-40.549573v-0.021331c53.283973-53.881231 53.283973-141.571548-0.021331-195.49544l-194.663545-196.071369z m164.352686 361.55458A93.32161 93.32161 0 0 1 886.769777 981.210495a93.32161 93.32161 0 0 1-66.743615-27.943156l-179.902733-181.182572 133.892513-135.044369L953.513392 817.817688a96.627861 96.627861 0 0 1 0 135.470982z"  /><path d="M884.743365 847.339313a35.771506 35.771506 0 1 0 0 71.543012 35.771506 35.771506 0 0 0 0-71.543012z"  /></svg>