<?xml version="1.0" standalone="no"?><!DOCTYPE svg PUBLIC "-//W3C//DTD SVG 1.1//EN" "http://www.w3.org/Graphics/SVG/1.1/DTD/svg11.dtd"><svg class="icon" width="128px" height="128.00px" viewBox="0 0 1024 1024" version="1.1" xmlns="http://www.w3.org/2000/svg"><path d="M451.349333 264.085333v187.285334h-187.285333c-103.296 0-187.285333-83.989333-187.285333-187.285334C76.8 160.789333 160.789333 76.8 264.085333 76.8s187.264 83.989333 187.264 187.285333zM416.832 572.650667v191.786666c0 105.770667-86.016 191.786667-191.786667 191.786667s-191.786667-86.016-191.786666-191.786667 86.016-191.786667 191.786666-191.786666h191.786667zM968.149333 770.389333c0 109.056-88.682667 197.738667-197.738666 197.738667s-197.738667-88.682667-197.738667-197.738667v-197.738666h197.738667c109.034667 0 197.738667 88.682667 197.738666 197.738666z" fill="#02c9ed" /><path d="M451.349333 472.682667H229.333333C102.869333 472.682667 0 369.813333 0 243.349333v-14.016C0 102.869333 102.869333 0 229.333333 0h14.016c126.464 0 229.333333 102.869333 229.333334 229.333333v222.016a21.333333 21.333333 0 0 1-21.333334 21.333334zM229.333333 42.666667C126.4 42.666667 42.666667 126.4 42.666667 229.333333v14.016c0 102.933333 83.733333 186.666667 186.666666 186.666667h200.682667V229.333333c0-102.933333-83.733333-186.666667-186.666667-186.666666h-14.016zM794.666667 472.682667H572.650667a21.333333 21.333333 0 0 1-21.333334-21.333334V229.333333C551.317333 102.869333 654.186667 0 780.650667 0h14.016C921.130667 0 1024 102.869333 1024 229.333333v14.016c0 126.464-102.869333 229.333333-229.333333 229.333334z m-200.682667-42.666667h200.682667c102.933333 0 186.666667-83.733333 186.666666-186.666667v-14.016C981.333333 126.4 897.6 42.666667 794.666667 42.666667h-14.016c-102.933333 0-186.666667 83.733333-186.666667 186.666666v200.682667zM243.349333 1024h-14.016C102.869333 1024 0 921.130667 0 794.666667v-14.016c0-126.464 102.869333-229.333333 229.333333-229.333334h222.016a21.333333 21.333333 0 0 1 21.333334 21.333334V794.666667c0 126.464-102.869333 229.333333-229.333334 229.333333z m-14.016-430.016c-102.933333 0-186.666667 83.733333-186.666666 186.666667v14.016C42.666667 897.6 126.4 981.333333 229.333333 981.333333h14.016c102.933333 0 186.666667-83.733333 186.666667-186.666666v-200.682667H229.333333zM794.666667 1024h-14.016c-126.464 0-229.333333-102.869333-229.333334-229.333333V572.650667a21.333333 21.333333 0 0 1 21.333334-21.333334H794.666667c126.464 0 229.333333 102.869333 229.333333 229.333334v14.016C1024 921.130667 921.130667 1024 794.666667 1024z m-200.682667-430.016v200.682667c0 102.933333 83.733333 186.666667 186.666667 186.666666h14.016c102.933333 0 186.666667-83.733333 186.666666-186.666666v-14.016c0-102.933333-83.733333-186.666667-186.666666-186.666667h-200.682667z"  /></svg>