<?xml version="1.0" standalone="no"?><!DOCTYPE svg PUBLIC "-//W3C//DTD SVG 1.1//EN" "http://www.w3.org/Graphics/SVG/1.1/DTD/svg11.dtd"><svg t="1584935044485" class="icon" viewBox="0 0 1024 1024" version="1.1" xmlns="http://www.w3.org/2000/svg" p-id="1809" xmlns:xlink="http://www.w3.org/1999/xlink" width="200" height="200"><defs><style type="text/css"></style></defs><path d="M176.796317 563.700256h-23.252849V277.13556a123.517427 123.517427 0 0 1 123.496094-123.496094h286.07404v23.743505c0 213.350222-172.94573 386.317285-386.317285 386.317285zM878.179038 1002.645778H658.599613v-17.258307c0-189.393388 153.532801-342.926189 342.926189-342.926189v236.837733A123.346764 123.346764 0 0 1 878.179038 1002.645778z" fill="#02C9ED" p-id="1810"></path><path d="M891.405429 42.665778a21.332889 21.332889 0 0 0 0-42.665778H241.712298C108.488406 0 0.095998 108.520406 0.095998 241.91496v650.461115a21.311556 21.311556 0 1 0 42.623112 0V241.91496C42.71911 132.050582 131.99725 42.665778 241.712298 42.665778h649.693131zM1001.525802 621.128393a21.311556 21.311556 0 0 0-21.311556 21.332889v238.821691a100.051249 100.051249 0 0 1-99.880586 100.008583H649.12781a21.311556 21.311556 0 1 0 0 42.665778h231.20585c78.56903 0 142.482365-63.998667 142.482365-142.674361V642.461282a21.26889 21.26889 0 0 0-21.290223-21.332889z" p-id="1811"></path><path d="M397.677048 981.312889h-123.005437a99.965917 99.965917 0 0 1-99.795254-99.923251v-606.494032a99.965917 99.965917 0 0 1 99.795254-99.923251H880.418991a99.965917 99.965917 0 0 1 99.795255 99.923251v57.001479a21.332889 21.332889 0 1 0 42.623112 0v-57.001479c0-78.633028-63.870669-142.589029-142.418367-142.589029H274.650278c-78.526364 0-142.418366 63.956001-142.418366 142.589029v606.515365c0 78.633028 63.870669 142.589029 142.418366 142.589029h123.005438A21.332889 21.332889 0 1 0 397.677048 981.312889z" p-id="1812"></path><path d="M797.092727 335.566342a21.332889 21.332889 0 0 0-21.311556-21.332889H313.241474a21.332889 21.332889 0 0 0 0 42.665778h462.539697a21.311556 21.311556 0 0 0 21.311556-21.332889zM313.241474 545.78063a21.311556 21.311556 0 1 0 0 42.665777h308.366909a21.311556 21.311556 0 1 0 0-42.665777H313.241474zM423.361847 777.327806h-110.141706a21.311556 21.311556 0 1 0 0 42.665777h110.141706a21.311556 21.311556 0 1 0 0-42.665777zM972.214412 541.322056l-45.204391-45.26839-374.434866 374.882856 0.383992 0.383992a31.039353 31.039353 0 0 0-5.717215 7.551843l-43.284431 82.515614a2.623945 2.623945 0 0 0 3.541259 3.562593l82.40895-43.327098c2.794608-1.471969 5.354555-3.370596 7.637174-5.631882l0.234662 0.234661 374.434866-374.904189zM1011.381596 454.987854a37.268557 37.268557 0 0 0-52.734901 0l-20.8209 20.842233 54.505531 54.56953 20.8209-20.842233a37.332556 37.332556 0 0 0 0-52.7989l-1.77063-1.77063z" p-id="1813"></path></svg>