<?xml version="1.0" standalone="no"?><!DOCTYPE svg PUBLIC "-//W3C//DTD SVG 1.1//EN" "http://www.w3.org/Graphics/SVG/1.1/DTD/svg11.dtd"><svg class="icon" width="128px" height="128.00px" viewBox="0 0 1024 1024" version="1.1" xmlns="http://www.w3.org/2000/svg"><path d="M54.250667 186.410667h469.653333l-42.88-90.048a55.061333 55.061333 0 0 0-49.472-31.253334H54.250667v121.301334zM953.002667 744.405333l-40.896-3.008a33.088 33.088 0 0 1-29.141334-23.125333 153.322667 153.322667 0 0 0-16.32-35.456 33.088 33.088 0 0 1 0.192-35.413333l21.248-33.130667c4.202667-6.549333 2.688-16.021333-3.242666-20.224l-33.813334-24a9.621333 9.621333 0 0 0-7.616-1.749333 11.477333 11.477333 0 0 0-7.36 5.290666l-21.248 33.130667a33.002667 33.002667 0 0 1-34.730666 14.485333 131.626667 131.626667 0 0 0-35.008-2.602666 33.301333 33.301333 0 0 1-32-19.114667l-15.872-34.261333a12.096 12.096 0 0 0-6.933334-6.634667 9.664 9.664 0 0 0-7.573333 0.554667l-36.544 18.816c-6.336 3.221333-8.96 12.266667-5.696 19.349333l15.829333 34.005333a33.066667 33.066667 0 0 1-5.269333 35.904c-3.605333 4.053333-7.125333 8.810667-10.837333 14.592a147.562667 147.562667 0 0 0-9.578667 17.450667 33.237333 33.237333 0 0 1-32.384 19.008l-34.282667-2.496a10.410667 10.410667 0 0 0-7.509333 2.624 14.122667 14.122667 0 0 0-4.714667 9.984l-2.773333 42.816c-0.490667 7.573333 4.458667 14.378667 10.837333 14.848l35.050667 2.602667a33.109333 33.109333 0 0 1 28.992 22.741333c3.882667 11.861333 9.130667 23.104 15.658667 33.429333 6.826667 10.858667 6.784 24.704-0.149334 35.498667l-21.248 33.130667c-4.224 6.549333-2.645333 16.042667 3.328 20.288l33.813334 24a9.493333 9.493333 0 0 0 7.488 1.728 11.52 11.52 0 0 0 7.381333-5.312l21.248-33.152a33.066667 33.066667 0 0 1 34.688-14.506667 132.8 132.8 0 0 0 35.818667 2.624 33.066667 33.066667 0 0 1 32.064 19.050667l17.514666 37.632a11.882667 11.882667 0 0 0 6.933334 6.634666c2.538667 0.853333 5.077333 0.682667 7.573333-0.597333l36.629333-18.752c6.293333-3.264 8.96-12.330667 5.696-19.434667l-17.664-37.952a33.130667 33.130667 0 0 1 5.034667-35.669333 131.776 131.776 0 0 0 18.965333-29.44c5.824-12.416 18.944-19.84 32.384-18.944l41.770667 3.093333a10.026667 10.026667 0 0 0 7.338667-2.645333 14.549333 14.549333 0 0 0 4.821333-10.218667l2.816-42.624c0.490667-7.594667-4.394667-14.4-10.709333-14.848zM850.56 831.146667c-17.258667 26.901333-43.626667 44.970667-74.24 50.901333a110.912 110.912 0 0 1-85.696-18.709333c-51.370667-36.437333-65.152-109.802667-30.656-163.584 17.258667-26.88 43.605333-44.949333 74.24-50.901334a110.357333 110.357333 0 0 1 85.696 18.688c51.370667 36.48 65.130667 109.866667 30.656 163.605334z" fill="#02c9ed" /><path d="M914.282667 187.456H589.930667l-59.626667-125.184A109.717333 109.717333 0 0 0 431.701333 0H21.333333a21.333333 21.333333 0 0 0-21.333333 21.333333v848.426667a110.272 110.272 0 0 0 110.144 110.144h334.378667a21.333333 21.333333 0 1 0 0-42.666667H110.144A67.562667 67.562667 0 0 1 42.666667 869.76V230.122667h871.616A67.136 67.136 0 0 1 981.333333 297.152v132.16a21.333333 21.333333 0 1 0 42.666667 0v-132.16a109.824 109.824 0 0 0-109.717333-109.696zM42.666667 42.666667h389.034666c25.514667 0 49.109333 14.890667 60.074667 37.930666l50.88 106.837334H42.666667V42.666667z"  /><path d="M962.816 686.698667l-26.965333-2.005334a206.848 206.848 0 0 0-10.346667-22.314666l14.250667-22.165334c19.818667-30.912 11.946667-73.088-17.578667-93.973333l-33.813333-24a63.850667 63.850667 0 0 0-49.450667-10.773333 65.429333 65.429333 0 0 0-42.816 29.333333l-13.632 21.248a190.826667 190.826667 0 0 0-20.032-1.472l-10.026667-21.589333a66.005333 66.005333 0 0 0-38.528-35.2 63.530667 63.530667 0 0 0-50.197333 3.541333l-36.608 18.816c-32.149333 16.448-45.696 57.088-30.165333 90.666667l10.24 22.058666a192.789333 192.789333 0 0 0-13.269334 20.736l-20.138666-1.450666a64.298667 64.298667 0 0 0-47.189334 15.786666 68.288 68.288 0 0 0-23.338666 47.530667l-2.794667 42.858667c-2.432 37.354667 24.981333 69.930667 61.098667 72.618666l21.354666 1.578667c2.794667 6.869333 5.930667 13.568 9.386667 20.010667l-14.208 22.144c-19.818667 30.912-11.904 73.109333 17.664 94.058666l33.834667 23.978667c14.506667 10.304 32.021333 14.144 49.322666 10.773333a65.429333 65.429333 0 0 0 42.816-29.376l13.653334-21.269333c6.933333 0.896 13.930667 1.408 20.906666 1.514667l11.605334 24.917333A65.856 65.856 0 0 0 827.306667 1024c10.069333 0 20.032-2.389333 29.290666-7.168l36.565334-18.730667h0.021333c32.170667-16.533333 45.738667-57.237333 30.229333-90.730666l-12.138666-26.112c2.218667-3.029333 4.394667-6.186667 6.528-9.472 1.728-2.730667 3.392-5.482667 4.970666-8.256l27.797334 2.048a63.573333 63.573333 0 0 0 47.018666-15.829334 68.778667 68.778667 0 0 0 23.445334-47.637333l2.837333-42.645333c2.474667-37.525333-24.917333-70.165333-61.056-72.768z m15.616 112.576c-0.469333 7.274667-3.626667 13.781333-8.853333 18.282666a21.802667 21.802667 0 0 1-15.914667 5.504l-41.749333-3.093333a21.290667 21.290667 0 0 0-20.885334 12.202667 146.304 146.304 0 0 1-20.778666 32.213333 21.333333 21.333333 0 0 0-3.221334 22.954667l17.664 37.973333c5.888 12.778667 0.853333 28.714667-11.029333 34.816l-36.565333 18.730667a21.312 21.312 0 0 1-16.810667 1.258666 23.808 23.808 0 0 1-13.76-12.8l-17.514667-37.610666a21.333333 21.333333 0 0 0-20.650666-12.288 144.405333 144.405333 0 0 1-38.997334-2.858667 21.312 21.312 0 0 0-22.357333 9.344l-21.248 33.130667a23.018667 23.018667 0 0 1-15.018667 10.517333 21.056 21.056 0 0 1-16.533333-3.669333l-33.834667-23.978667c-11.050667-7.829333-13.973333-24.448-6.421333-36.224l21.248-33.130667a21.333333 21.333333 0 0 0 0.085333-22.890666 163.562667 163.562667 0 0 1-16.874666-36.074667 21.354667 21.354667 0 0 0-18.688-14.634667l-35.072-2.602666c-12.885333-0.96-22.613333-13.205333-21.696-27.306667l2.816-42.858667a25.813333 25.813333 0 0 1 8.746666-18.090666c4.565333-3.968 10.282667-5.866667 16.064-5.461334l34.282667 2.474667a20.778667 20.778667 0 0 0 20.885333-12.245333c3.072-6.570667 6.549333-12.885333 10.325334-18.816 4.032-6.293333 7.936-11.541333 11.946666-16.021334a21.333333 21.333333 0 0 0 3.392-23.189333l-15.829333-34.048c-5.888-12.778667-0.896-28.672 10.965333-34.730667l36.586667-18.816a21.162667 21.162667 0 0 1 16.768-1.194666c6.016 2.090667 10.901333 6.613333 13.76 12.8l15.893333 34.24c3.712 7.936 11.925333 12.842667 20.629334 12.309333a145.002667 145.002667 0 0 1 38.144 2.837333 21.12 21.12 0 0 0 22.421333-9.344L832 563.861333c3.584-5.589333 8.917333-9.301333 15.018667-10.474666 5.781333-1.152 11.690667 0.170667 16.661333 3.690666l33.813333 24c11.178667 7.914667 14.016 24.128 6.336 36.117334l-21.269333 33.130666a21.333333 21.333333 0 0 0-0.128 22.826667c7.530667 12.010667 13.44 24.874667 17.6 38.165333a21.290667 21.290667 0 0 0 18.773333 14.912l40.896 3.029334c12.842667 0.917333 22.528 13.205333 21.568 27.392l-2.837333 42.624z"  /><path d="M818.944 673.728a98.752 98.752 0 0 0-76.672-16.746667c-27.434667 5.333333-51.072 21.568-66.56 45.717334-31.146667 48.554667-18.794667 114.816 27.584 147.669333a99.136 99.136 0 0 0 76.650667 16.746667c27.434667-5.333333 51.093333-21.568 66.581333-45.717334 31.146667-48.554667 18.773333-114.794667-27.584-147.669333z m-8.341333 124.629333c-9.152 14.229333-22.912 23.765333-38.784 26.858667a56.490667 56.490667 0 0 1-43.861334-9.642667c-28.032-19.882667-35.349333-60.16-16.341333-89.834666 9.130667-14.250667 22.912-23.786667 38.784-26.858667a55.893333 55.893333 0 0 1 10.773333-1.066667c11.690667 0 23.146667 3.669333 33.088 10.709334 28.032 19.904 35.370667 60.181333 16.341334 89.834666zM828.288 396.224a21.333333 21.333333 0 0 0-21.333333-21.333333H354.88a21.333333 21.333333 0 0 0 0 42.666666h452.074667a21.333333 21.333333 0 0 0 21.333333-21.333333zM222.570667 374.890667H183.978667a21.333333 21.333333 0 0 0 0 42.666666h38.592a21.333333 21.333333 0 0 0 0-42.666666zM222.570667 616.746667H183.978667a21.333333 21.333333 0 1 0 0 42.666666h38.592a21.333333 21.333333 0 1 0 0-42.666666zM354.88 616.746667a21.333333 21.333333 0 1 0 0 42.666666h82.688a21.333333 21.333333 0 1 0 0-42.666666h-82.688z"  /></svg>