<?xml version="1.0" standalone="no"?><!DOCTYPE svg PUBLIC "-//W3C//DTD SVG 1.1//EN" "http://www.w3.org/Graphics/SVG/1.1/DTD/svg11.dtd"><svg class="icon" width="128px" height="128.00px" viewBox="0 0 1024 1024" version="1.1" xmlns="http://www.w3.org/2000/svg"><path d="M861.295475 707.715129H148.824283a84.137546 84.137546 0 0 1-84.137546-84.137546v-14.20421c0-186.360932 151.085013-337.445944 337.445944-337.445944h205.854396c186.360932 0 337.445944 151.085013 337.445944 337.445944v14.20421a84.137546 84.137546 0 0 1-84.137546 84.137546z" fill="#02c9ed" /><path d="M1002.399151 76.971458H533.191038V21.327642a21.327642 21.327642 0 0 0-42.655283 0v55.643816H21.327642a21.327642 21.327642 0 0 0 0 42.655283h28.280452v499.877262a106.702191 106.702191 0 0 0 106.595552 106.574225h326.099639c0.106638 0.213276 0.298587 0.405225 0.405225 0.618501l-260.581124 260.62378a21.306314 21.306314 0 1 0 30.157286 30.157285L511.863396 757.877741l259.578725 259.600053a21.263659 21.263659 0 0 0 30.157285 0 21.306314 21.306314 0 0 0 0-30.157285L541.018282 726.718057c0.106638-0.213276 0.319915-0.405225 0.405226-0.618501h326.099638a106.680863 106.680863 0 0 0 106.574225-106.574225V119.626741H1002.399151a21.327642 21.327642 0 1 0 0-42.655283z m-70.935735 542.553873a64.004252 64.004252 0 0 1-63.918942 63.918941H156.182319a64.004252 64.004252 0 0 1-63.940269-63.918941V119.81869h839.200038v499.706641z"  /><path d="M644.137429 301.700817h154.326814a21.327642 21.327642 0 1 0 0-42.655283h-154.326814a21.327642 21.327642 0 1 0 0 42.655283zM644.137429 522.164647h154.326814a21.327642 21.327642 0 1 0 0-42.655283h-154.326814a21.327642 21.327642 0 1 0 0 42.655283zM293.383037 539.120122a21.348969 21.348969 0 0 0 10.194612-41.439607 132.65793 132.65793 0 0 1-101.071693-129.13887 133.148466 133.148466 0 0 1 132.999173-132.999172 132.721913 132.721913 0 0 1 129.074886 100.751778 21.327642 21.327642 0 0 0 41.396952-10.30125 175.313213 175.313213 0 0 0-170.450511-133.105811c-96.870148 0-175.654456 78.784308-175.654455 175.654455a175.142592 175.142592 0 0 0 133.511036 170.578477z"  /><path d="M358.261722 412.647208v154.326814a21.327642 21.327642 0 0 0 21.327642 21.327642c96.870148 0 175.654456-78.805635 175.654455-175.654456a21.327642 21.327642 0 0 0-21.327641-21.327641h-154.326814a21.327642 21.327642 0 0 0-21.327642 21.327641z m42.655283 21.327642h109.96532a133.340415 133.340415 0 0 1-109.96532 109.965319v-109.965319z"  /></svg>