<?xml version="1.0" standalone="no"?><!DOCTYPE svg PUBLIC "-//W3C//DTD SVG 1.1//EN" "http://www.w3.org/Graphics/SVG/1.1/DTD/svg11.dtd"><svg class="icon" width="128px" height="128.00px" viewBox="0 0 1024 1024" version="1.1" xmlns="http://www.w3.org/2000/svg"><path d="M881.211 562.361v163.666c0 9.441-2.155 18.234-6.447 26.361-4.3 8.133-10.182 14.291-17.647 18.488l-152.031 88.129c-5.658 3.67-12.106 5.51-19.342 5.51-7.242 0-13.691-1.838-19.342-5.51l-152.028-88.129a22.44 22.44 0 0 1-2.375-1.574c-0.458 0.521-1.246 1.043-2.376 1.574l-152.028 88.129c-5.657 3.67-12.106 5.51-19.342 5.51-7.242 0-13.689-1.838-19.342-5.51l-152.028-88.129c-7.466-4.199-13.351-10.359-17.647-18.488-4.299-8.127-6.447-16.918-6.447-26.361V562.361c0-9.967 2.429-19.146 7.296-27.541 4.862-8.393 11.253-14.688 19.173-18.885l147.276-73.179V285.384c0-9.965 2.43-19.143 7.298-27.541 4.861-8.391 11.253-14.684 19.172-18.885l152.029-75.538c5.201-2.618 10.858-3.935 16.968-3.935 6.107 0 11.761 1.316 16.967 3.935l152.03 75.538c7.918 4.199 14.308 10.495 19.174 18.885 4.86 8.396 7.296 17.576 7.296 27.541v157.371l147.278 73.179c8.144 4.197 14.592 10.494 19.342 18.885 4.748 8.396 7.126 17.576 7.126 27.541l-0.003 0.001z m-542.963 60.586l137.097-68.063-137.097-68.064-137.097 68.064 137.097 68.063z m21.718 178.621l130.311-75.539V602.492l-130.311 64.521V801.57v-0.002z m152.03-443.006l149.654-74.359-149.654-74.357-149.654 74.357 149.654 74.359z m21.717 149.112l130.313-64.917V338.106l-130.313 64.522v105.046z m152.03 115.273l137.098-68.063-137.098-68.064-137.097 68.064 137.097 68.063z m21.72 178.621l130.311-75.539V602.492l-130.311 64.521V801.57v-0.002z" fill="#1296db" /></svg>