<?xml version="1.0" standalone="no"?><!DOCTYPE svg PUBLIC "-//W3C//DTD SVG 1.1//EN" "http://www.w3.org/Graphics/SVG/1.1/DTD/svg11.dtd"><svg class="icon" width="128px" height="128.00px" viewBox="0 0 1024 1024" version="1.1" xmlns="http://www.w3.org/2000/svg"><path d="M950.4 784h-304c-25.6 0-48-22.4-48-48s22.4-48 48-48h304c25.6 0 48 22.4 48 48s-22.4 48-48 48z m0 0"  /><path d="M644.6 784c-12.8 0-25.6-3.2-32-12.8-19.2-19.2-19.2-48 0-67.2l144-144c19.2-19.2 48-19.2 67.2 0s19.2 48 0 67.2l-144 144.05c-12.8 9.6-25.6 12.8-35.2 12.8z m0 0"  /><path d="M789.15 928c-12.8 0-25.6-3.2-32-12.8L613.1 771.25c-19.2-19.2-19.2-48 0-67.2s48-19.2 67.2 0L824.35 848c19.2 19.2 19.2 48 0 67.2-9.6 6.4-22.4 12.8-35.2 12.8z m0 0"  /><path d="M889.6 979.2a140.387 140.387 0 0 1-99.2 41.6c-38.4 0-70.4-12.8-99.2-41.6l-140.8-144c-19.2-19.2-32-44.8-38.4-70.4-3.2-9.6-3.2-19.2-3.2-28.75s0-19.2 3.2-28.75c6.4-25.6 19.2-51.25 38.4-70.4l143.95-144.1a139.088 139.088 0 0 1 198.4 0c19.563 19.575 57.837 69.063 74.775 91.25a4.688 4.688 0 0 0 8.412-2.837V254.287c0-72.975-59.712-132.688-132.687-132.688H292.687C219.713 121.6 160 181.313 160 254.288v637.024C160 964.288 219.712 1024 292.688 1024h547.424c72.975 0 132.688-59.712 132.688-132.688a4.688 4.688 0 0 0-8.475-2.775C947.9 911.063 911.412 959.813 889.6 979.2z m41.6-102.4"  /><path d="M89.6 857.6V179.2c0-73.6 60.8-134.4 134.4-134.4h582.4C784 19.2 748.8 0 710.4 0H153.6c-70.4 0-128 57.6-128 128v649.6c0 48 25.6 89.6 67.2 112-3.2-12.8-3.2-22.4-3.2-32z m0 0"  /></svg>