<?xml version="1.0" standalone="no"?><!DOCTYPE svg PUBLIC "-//W3C//DTD SVG 1.1//EN" "http://www.w3.org/Graphics/SVG/1.1/DTD/svg11.dtd"><svg class="icon" width="128px" height="128.00px" viewBox="0 0 1024 1024" version="1.1" xmlns="http://www.w3.org/2000/svg"><path d="M995.84 663.36c-15.552 0-28.16 13.216-28.16 29.44v233.056c0 21.632-16.896 39.264-37.6 39.264h-548.16c-20.704 0-37.6-17.6-37.6-39.264V386.144c0-21.632 16.896-39.264 37.6-39.264h240.544c15.552 0 28.16-13.184 28.16-29.44S638.08 288 622.464 288h-240.544C330.112 288 288 332 288 386.144v539.712C288 980 330.112 1024 381.92 1024h548.16C981.888 1024 1024 980 1024 925.856V692.8c0-16.224-12.608-29.44-28.16-29.44z m-570.016 145.408c87.52-86.528 175.84-220.32 332.064-211.68 11.008 0.64 19.616 9.664 19.616 21.248v56.64c-0.096 17.824 19.744 27.776 32.96 16.544l202.528-171.136a21.76 21.76 0 0 0-0.096-32.96l-201.536-189.408c-13.248-11.136-33.856-1.28-33.92 16.448v57.376c0 10.784-7.04 18.56-17.152 20.992-268.8 64.064-336.768 393.28-334.464 415.936z" fill="#757575" /><path d="M160 160m32 0l576 0q32 0 32 32l0 0q0 32-32 32l-576 0q-32 0-32-32l0 0q0-32 32-32Z" fill="#757575" /><path d="M64 0m0 32l0 576q0 32-32 32l0 0q-32 0-32-32l0-576q0-32 32-32l0 0q32 0 32 32Z" fill="#757575" /><path d="M224 160m0 32l0 576q0 32-32 32l0 0q-32 0-32-32l0-576q0-32 32-32l0 0q32 0 32 32Z" fill="#757575" /><path d="M0 0m32 0l576 0q32 0 32 32l0 0q0 32-32 32l-576 0q-32 0-32-32l0 0q0-32 32-32Z" fill="#757575" /></svg>