<?xml version="1.0" standalone="no"?><!DOCTYPE svg PUBLIC "-//W3C//DTD SVG 1.1//EN" "http://www.w3.org/Graphics/SVG/1.1/DTD/svg11.dtd"><svg class="icon" width="128px" height="120.03px" viewBox="0 0 1092 1024" version="1.1" xmlns="http://www.w3.org/2000/svg"><path d="M1090.56 745.813333a554.325333 554.325333 0 0 1-11.332267-21.845333l-159.266133-315.255467a43.895467 43.895467 0 0 0-35.703467-21.845333H752.298667a24.644267 24.644267 0 0 0-24.712534 24.439467v41.5744c0 13.448533 11.127467 24.439467 24.712534 24.439466h41.984a43.690667 43.690667 0 0 1 35.6352 21.981867l112.8448 225.757867c6.007467 12.0832-0.2048 21.9136-13.789867 21.9136h-179.2a24.644267 24.644267 0 0 0-24.712533 24.439466v127.931734a24.644267 24.644267 0 0 1-24.644267 24.439466H389.802667a24.644267 24.644267 0 0 1-24.712534-24.439466V771.413333a24.644267 24.644267 0 0 0-24.712533-24.439466H157.4912c-13.585067 0-19.592533-9.762133-13.312-21.7088L262.144 498.756267a44.6464 44.6464 0 0 1 36.0448-21.7088h40.823467a24.576 24.576 0 0 0 24.712533-24.439467v-41.1648a24.576 24.576 0 0 0-24.712533-24.439467H207.6672a44.032 44.032 0 0 0-35.771733 21.845334L11.8784 724.309333c-6.075733 11.946667-10.922667 21.845333-10.717867 21.845334 0.136533 0 0.273067 10.922667 0.273067 24.3712v222.0032c0 13.448533 11.127467 24.439467 24.712533 24.439466h1040.042667a24.644267 24.644267 0 0 0 24.712533-24.439466v-222.208c0-13.448533-0.2048-24.439467-0.341333-24.439467zM319.8976 278.3232h135.509333v376.558933h181.4528V278.3232h142.677334c13.653333 0 17.408-8.260267 8.3968-18.295467L563.063467 8.8064A21.162667 21.162667 0 0 0 530.432 8.874667l-219.136 250.88c-8.874667 10.171733-5.051733 18.432 8.533333 18.432z" /></svg>