<?xml version="1.0" standalone="no"?><!DOCTYPE svg PUBLIC "-//W3C//DTD SVG 1.1//EN" "http://www.w3.org/Graphics/SVG/1.1/DTD/svg11.dtd"><svg class="icon" width="200px" height="200.00px" viewBox="0 0 1024 1024" version="1.1" xmlns="http://www.w3.org/2000/svg"><path d="M830.95552 289.71008h-148.19328V141.509973H188.777813v740.980054h419.88096l222.296747-222.296747v-370.4832z" fill="#3aad73" /><path d="M830.95552 623.96416L572.43648 882.4832h258.51904V623.96416z" fill="#4a9377" /><path d="M682.76224 141.509973v148.19328h148.19328l-148.19328-148.19328z" fill="#abd8ca" /><path d="M830.95552 437.90336V289.71008h-148.19328l148.19328 148.19328z" fill="#2d8e69" /><path d="M301.9776 526.021973h98.79552v170.86464H301.9776V526.021973zM460.4928 327.099733v369.80736H543.744l15.537493-17.63328V327.099733H460.4928zM618.96704 389.946027v264.21248l98.79552 16.75264V389.946027H618.96704z" fill="#f1eee7" /><path d="M765.003093 784.83456z" fill="#f8fcff" /><path d="M582.628693 794.617173l157.300054-154.7264 34.010453 33.44384L616.666453 828.074667l-34.03776-33.457494z" fill="#375ace" /><path d="M616.727893 828.163413l-0.08192-0.088746 157.279574-154.733227 0.12288 0.095573-157.320534 154.7264z" fill="#375ace" /><path d="M673.805653 574.846293l32.713387 32.187734-157.334187 154.699093-32.699733-32.180907 157.320533-154.70592z" fill="#4674e1" /><path d="M739.928747 574.149973l33.416533 32.884054-190.743893 187.55584-33.409707-32.856747 190.737067-187.583147z" fill="#5783ee" /><path d="M739.9424 639.87712l33.42336-32.856747 34.003627 33.457494-33.409707 32.856746-34.01728-33.457493z m34.106027 33.56672l-0.088747-0.095573 33.409707-32.856747 0.095573 0.1024-33.416533 32.84992zM707.242667 541.969067l32.699733 32.17408-33.40288 32.856746-32.713387-32.167253 33.416534-32.863573z" fill="#cbd5d1" /><path d="M739.928747 574.149973l33.416533 32.8704-33.416533 32.856747-33.409707-32.856747 33.409707-32.8704z" fill="#d5d7d2" /><path d="M807.36256 640.477867l0.08192 0.08192 8.37632-8.219307c0.150187-0.16384 0.211627-0.382293 0.375467-0.566613l-8.833707 8.704z" fill="#ff69a7" /><path d="M815.813973 615.922347L732.289707 533.777067a11.93984 11.93984 0 0 0-16.6912-0.006827l-0.006827 0.006827-8.349013 8.205653 100.12672 98.501973 8.833706-8.690346a11.421013 11.421013 0 0 0-0.38912-15.872z" fill="#ff69a7" /><path d="M516.42368 729.654613l-16.063147 82.814294L532.48 844.04224l83.94752-15.742293 0.136533-0.14336-100.140373-98.501974z m100.133547 98.5088l-0.136534 0.14336 0.238934-0.047786-0.1024-0.095574z" fill="#f4d031" /><path d="M500.36736 812.468907l-7.55712 39.021226L532.48 844.04224l-32.11264-31.573333z" fill="#6d6d6d" /></svg>