<?xml version="1.0" standalone="no"?><!DOCTYPE svg PUBLIC "-//W3C//DTD SVG 1.1//EN" "http://www.w3.org/Graphics/SVG/1.1/DTD/svg11.dtd"><svg class="icon" width="128px" height="128.00px" viewBox="0 0 1024 1024" version="1.1" xmlns="http://www.w3.org/2000/svg"><path d="M880.085333 1017.429333H143.914667A58.538667 58.538667 0 0 1 85.333333 959.146667V58.282667C85.333333 26.368 111.445333 0 143.914667 0h513.024L938.666667 288.768V959.146667c0 32.298667-26.112 58.282667-58.581334 58.282666z" fill="#2ea355" /><path d="M222.549333 591.530667h32.085334l45.738666 62.805333 45.397334-62.805333h32.085333l-62.464 82.944L385.365333 768h-32.426666L300.373333 694.613333 247.466667 768h-32.426667l69.973333-93.525333-62.464-82.944z m191.146667-72.021334h26.965333V768h-26.965333v-248.490667z m137.216 67.242667c43.690667 0 67.584 18.090667 72.362667 54.954667h-26.624c-2.389333-10.922667-6.826667-19.114667-13.653334-23.893334-7.509333-5.461333-18.432-8.192-32.426666-8.192-12.288 0-21.845333 2.048-28.672 6.826667-7.509333 4.437333-11.264 10.581333-11.264 18.432 0 7.509333 4.778667 13.994667 15.018666 19.114667 6.485333 3.072 18.773333 6.826667 36.522667 11.605333 21.162667 5.12 36.181333 10.581333 45.397333 16.384 13.994667 8.874667 21.162667 20.821333 21.162667 36.181333 0 36.181333-24.917333 54.613333-74.752 54.613334-46.421333 0-71.68-20.48-75.776-61.098667h26.624c2.048 13.994667 7.168 23.893333 14.677333 30.037333 7.509333 5.461333 18.773333 8.192 33.792 8.192 31.402667 0 47.445333-10.24 47.445334-30.037333 0-9.898667-5.802667-17.408-16.725334-22.869333-5.802667-2.730667-18.432-6.485333-37.546666-11.264-20.821333-5.12-35.498667-10.24-43.690667-15.701334-13.653333-8.192-20.138667-19.456-20.138667-34.474666 0-15.018667 6.485333-26.624 19.797334-35.498667 12.288-8.874667 28.672-13.312 48.469333-13.312z m97.962667 4.778667h32.085333l45.738667 62.805333 45.397333-62.805333h32.085333l-62.464 82.944L811.690667 768h-32.426667l-52.565333-73.386667-52.906667 73.386667h-32.426667l69.973334-93.525333-62.464-82.944z" fill="#ffffff" /><path d="M644.437333 0a15.36 15.36 0 0 0-1.152 6.058667V235.946667c0 32.554667 27.178667 59.434667 60.928 59.434666H938.666667v-0.384L645.632 0h-1.194667z" fill="#ffffff" fill-opacity="0.496" /></svg>